<svg xmlns="http://www.w3.org/2000/svg" xmlns:xlink="http://www.w3.org/1999/xlink" width="90" height="89.999" viewBox="0 0 90 89.999">
  <defs>
    <clipPath id="clip-path">
      <rect id="Rectangle_411460" data-name="Rectangle 411460" width="46" height="53" transform="translate(17343 -9363)" fill="#fff" stroke="#707070" stroke-width="1" opacity="0"/>
    </clipPath>
  </defs>
  <g id="Group_1205047" data-name="Group 1205047" transform="translate(-17320.73 9385.506)">
    <g id="Group_1205042" data-name="Group 1205042" transform="translate(17320.73 -9385.506)">
      <g id="Group_1204237" data-name="Group 1204237" transform="translate(0)">
        <g id="Group_1204143" data-name="Group 1204143">
          <g id="Group_1188789" data-name="Group 1188789" transform="translate(0 0)">
            <path id="Path_1243039" data-name="Path 1243039" d="M37.05,0h0a37.05,37.05,0,0,1,0,74.1h0a37.05,37.05,0,0,1,0-74.1Z" transform="translate(7.951 7.949)" fill="#ffc94a"/>
            <rect id="Rectangle_400907" data-name="Rectangle 400907" width="80.438" height="80.437" rx="40.218" transform="translate(4.782 4.781)" fill="none"/>
            <g id="Group_1098742" data-name="Group 1098742" transform="translate(0)">
              <g id="Rectangle_400898" data-name="Rectangle 400898" transform="translate(0)" fill="none" stroke="#fff" stroke-width="2" opacity="0.859">
                <rect width="90" height="89.999" rx="44.999" stroke="none"/>
                <rect x="1" y="1" width="88" height="87.999" rx="43.999" fill="none"/>
              </g>
              <g id="Rectangle_400907-2" data-name="Rectangle 400907" transform="translate(0)" fill="none" stroke="#0f1f33" stroke-linecap="round" stroke-width="2">
                <rect width="90" height="89.999" rx="44.999" stroke="none"/>
                <rect x="1" y="1" width="88" height="87.999" rx="43.999" fill="none"/>
              </g>
            </g>
          </g>
        </g>
      </g>
    </g>
    <g id="Mask_Group_1099512" data-name="Mask Group 1099512" clip-path="url(#clip-path)">
      <g id="vaca_1_" data-name="vaca (1)" transform="translate(17342.164 -9360.337)">
        <g id="Group_1205054" data-name="Group 1205054">
          <path id="Path_1245312" data-name="Path 1245312" d="M11.93,42.946A3.616,3.616,0,0,0,9.471,44.19a6.55,6.55,0,0,1,1.243-4.308,6.237,6.237,0,0,0-2.966,2.331,20.153,20.153,0,0,1,1.571-6.295,8.561,8.561,0,0,0-3.588,5c-.786-2.773-1.938-4.883-3.287-5.912a37.425,37.425,0,0,1,1.475,7.7,6.685,6.685,0,0,0-2.426-1.21,6.454,6.454,0,0,1,1.7,4.568c2.3,0,5.023.124,7.539.124a4.574,4.574,0,0,1,1.2-3.237Z" fill="#afe269" fill-rule="evenodd"/>
          <g id="Group_1205052" data-name="Group 1205052">
            <path id="Path_1245313" data-name="Path 1245313" d="M16.18,2.8a3.11,3.11,0,0,0,3.584,3.584,3.11,3.11,0,0,0,1.312,4.9,3.11,3.11,0,0,0-1.312,4.9,3.11,3.11,0,0,0-3.584,3.584,3.11,3.11,0,0,0-4.9,1.312,3.11,3.11,0,0,0-4.9-1.312,3.11,3.11,0,0,0-3.584-3.584,3.11,3.11,0,0,0-1.312-4.9A3.11,3.11,0,0,0,2.8,6.385,3.11,3.11,0,0,0,6.389,2.8a3.11,3.11,0,0,0,4.9-1.312A3.11,3.11,0,0,0,16.18,2.8Z" fill="#fdcd56" fill-rule="evenodd"/>
            <ellipse id="Ellipse_12541" data-name="Ellipse 12541" cx="4.993" cy="4.993" rx="4.993" ry="4.993" transform="translate(6.088 6.498) rotate(-2.407)" fill="#f5b945"/>
          </g>
          <g id="Group_1205053" data-name="Group 1205053">
            <path id="Path_1245314" data-name="Path 1245314" d="M40.555,38.038H35.262a2.747,2.747,0,0,0,.3,2.14l-.115.109a.65.65,0,1,0,.891.947l.143-.135a2.725,2.725,0,0,0,.773.322l-.005.176a.649.649,0,0,0,1.3.036l.006-.21a2.745,2.745,0,0,0,2-3.384Z" fill="#efc7a4" fill-rule="evenodd"/>
            <path id="Path_1245315" data-name="Path 1245315" d="M27.185,28.075H39.5a4.122,4.122,0,0,1,4.11,4.11v12.4a1.606,1.606,0,0,1-1.6,1.6h-.348a1.606,1.606,0,0,1-1.6-1.6V40.556a1.816,1.816,0,0,0-1.812-1.812h-9.53A1.816,1.816,0,0,0,26.9,40.556V44.58a1.606,1.606,0,0,1-1.6,1.6h-.623a1.606,1.606,0,0,1-1.6-1.6v-12.4a4.122,4.122,0,0,1,4.11-4.11Z" fill="#e7eaed" fill-rule="evenodd"/>
            <path id="Path_1245316" data-name="Path 1245316" d="M23.076,40.3V36.465a1.917,1.917,0,1,1,0,3.834Zm7.582-12.225H39.5a4.084,4.084,0,0,1,2.488.845,5.689,5.689,0,0,1-11.335-.7c0-.049,0-.1,0-.147Zm2.7,10.669H28.138a2.7,2.7,0,1,1,5.215,0Z" fill="#424852" fill-rule="evenodd"/>
            <path id="Path_1245317" data-name="Path 1245317" d="M27.969,23.759a3.337,3.337,0,0,1-.433,2.15,5.631,5.631,0,0,1-1.681,1.855.486.486,0,0,1-.678-.114l-.647-.911a.486.486,0,0,1,.114-.678l.034-.023a6.781,6.781,0,0,0,1.59-1.3,5.547,5.547,0,0,0,.791-1.121.488.488,0,0,1,.911.139Zm-9.354,2.15a3.356,3.356,0,0,1-.433-2.15.487.487,0,0,1,.911-.139,5.547,5.547,0,0,0,.791,1.121c.037.041,1.59,1.3,1.59,1.3l.035.022a.486.486,0,0,1,.114.678l-.647.911a.486.486,0,0,1-.678.114,5.633,5.633,0,0,1-1.681-1.855Z" fill="#636c77" fill-rule="evenodd"/>
            <path id="Path_1245318" data-name="Path 1245318" d="M29.447,26.256a2.7,2.7,0,0,1-2.688,2.515H19.392A2.7,2.7,0,0,1,16.7,26.256Z" fill="#f4f6f8" fill-rule="evenodd"/>
            <path id="Path_1245319" data-name="Path 1245319" d="M22.446,25.652h1.26a2.577,2.577,0,0,1,2.569,2.569v3.441a2.577,2.577,0,0,1-2.569,2.569h-1.26a2.577,2.577,0,0,1-2.569-2.569V28.221a2.577,2.577,0,0,1,2.569-2.569Z" fill="#f7f9fb" fill-rule="evenodd"/>
            <path id="Path_1245320" data-name="Path 1245320" d="M26.01,32.794a2.584,2.584,0,0,1-1.9,1.405H22.039a2.584,2.584,0,0,1-1.9-1.405,2.577,2.577,0,0,1,2.3-1.438h1.26a2.577,2.577,0,0,1,2.3,1.438Z" fill="#efc7a4" fill-rule="evenodd"/>
            <path id="Path_1245321" data-name="Path 1245321" d="M24.675,29.165a.5.5,0,1,1-.5.5A.5.5,0,0,1,24.675,29.165Zm-3.25,0a.5.5,0,1,1-.5.5A.5.5,0,0,1,21.426,29.165Z" fill="#424852" fill-rule="evenodd"/>
          </g>
        </g>
        <path id="Path_1245322" data-name="Path 1245322" d="M21.425,29.164a.5.5,0,1,1-.5.5A.5.5,0,0,1,21.425,29.164Zm25.412,7.967v-.049c-.035-.744-.421-7.185-3.961-8.251A4.749,4.749,0,0,0,39.5,27.423H29.819A3.318,3.318,0,0,0,30.1,26.3a.667.667,0,0,0-.175-.489.648.648,0,0,0-.478-.206H27.681a3.14,3.14,0,0,0,.285-1.846.488.488,0,0,0-.911-.139,6.07,6.07,0,0,1-1.612,1.891A3.212,3.212,0,0,0,23.7,25H22.441a3.2,3.2,0,0,0-1.678.474,5.412,5.412,0,0,1-1.674-1.855.489.489,0,0,0-.911.139,3.209,3.209,0,0,0,.285,1.846H16.7a.663.663,0,0,0-.478.206.646.646,0,0,0-.171.489,3.351,3.351,0,0,0,3.168,3.12v2.244a3.224,3.224,0,0,0,3.2,3.22v9.7a2.258,2.258,0,0,0,2.256,2.255H25.3a2.258,2.258,0,0,0,2.256-2.255V40.556a1.162,1.162,0,0,1,1.161-1.16h5.858a3.34,3.34,0,0,0,.5,1.24L34.683,41a.652.652,0,0,0,.447,1.128.642.642,0,0,0,.443-.176l.425-.4a3.473,3.473,0,0,0,.78.391,3.977,3.977,0,0,0,.456.126l-.018.547a.652.652,0,0,0,.631.673h.022a.654.654,0,0,0,.653-.63l.018-.575a3.284,3.284,0,0,0,.863-.287V44.58a2.258,2.258,0,0,0,2.256,2.255H42A2.258,2.258,0,0,0,44.26,44.58v-12.4c0-.141-.009-.28-.018-.419a14.355,14.355,0,0,1,1.288,5.374.656.656,0,0,0,.653.623h.031a.653.653,0,0,0,.622-.63ZM24.172,29.666a.5.5,0,1,1,.5.5A.5.5,0,0,1,24.172,29.666Zm-3.006,6.92a.653.653,0,0,1,0,.922l-2.221,2.218a.64.64,0,0,1-.46.191.652.652,0,0,1-.46-1.113L19.133,37.7H11.247a.652.652,0,1,1,0-1.3h7.887l-1.108-1.106a.651.651,0,1,1,.92-.922ZM7.474,32.878l0-7.887L6.37,26.1a.651.651,0,0,1-.92-.922l2.217-2.219a.656.656,0,0,1,.925,0l2.217,2.219a.653.653,0,0,1-.925.922l-1.1-1.106v7.887a.653.653,0,0,1-1.306,0Zm35.485,11.7a.955.955,0,0,1-.955.951h-.346a.951.951,0,0,1-.951-.951V40.556a2.466,2.466,0,0,0-2.462-2.464H34.1a3.353,3.353,0,1,0-6.677.37,2.464,2.464,0,0,0-1.17,2.093V44.58a.951.951,0,0,1-.951.951h-.622a.951.951,0,0,1-.951-.951v-3.7a2.377,2.377,0,0,0,1.257-.749,2.648,2.648,0,0,0,.635-1.747,2.485,2.485,0,0,0-1.893-2.5v-1a3.224,3.224,0,0,0,3.2-3.22V29.419a3.327,3.327,0,0,0,1.871-.693h1.227a6.335,6.335,0,0,0,6.318,5.836,6.352,6.352,0,0,0,6.016-4.327,3.43,3.43,0,0,1,.6,1.948v12.4Zm-6.506-4.318s0-.008-.009-.012a.424.424,0,0,0-.057-.052,1.993,1.993,0,0,1-.478-.8h2.335a1.158,1.158,0,0,1,1.117.859,2.051,2.051,0,0,1-2.151.465,2.14,2.14,0,0,1-.758-.458Zm-7.334-3.474a2.047,2.047,0,0,1,3.251,0,2.06,2.06,0,0,1,.425,1.3h-4.1a2.036,2.036,0,0,1,.425-1.3Zm-5.393.483a1.24,1.24,0,0,1,.587,1.112,1.361,1.361,0,0,1-.311.888,1.009,1.009,0,0,1-.276.223ZM20.9,32.8a1.931,1.931,0,0,1,1.542-.787H23.7a1.931,1.931,0,0,1,1.542.787,1.91,1.91,0,0,1-1.542.785H22.441A1.916,1.916,0,0,1,20.9,32.8Zm-3.374-5.887H19.5a3.25,3.25,0,0,0-.276,1.2A2.05,2.05,0,0,1,17.525,26.908Zm6.178-.6H22.441a1.918,1.918,0,0,0-1.915,1.917v3.126a3.219,3.219,0,0,1,1.915-.642H23.7a3.232,3.232,0,0,1,1.919.642V28.221A1.922,1.922,0,0,0,23.7,26.3Zm3.216,1.809a3.164,3.164,0,0,0-.276-1.2h1.98A2.056,2.056,0,0,1,26.919,28.113ZM41.277,29.22a5.034,5.034,0,0,1-8.539,2.519,4.968,4.968,0,0,1-1.406-3.013H39.5a3.423,3.423,0,0,1,1.779.494ZM11.282,6.939A4.342,4.342,0,1,1,6.94,11.281,4.348,4.348,0,0,1,11.282,6.939Zm0,9.987a5.645,5.645,0,1,0-5.643-5.645A5.655,5.655,0,0,0,11.282,16.926ZM4.031,9.338A3.735,3.735,0,0,1,2.786,11.28a3.689,3.689,0,0,1,1.249,1.942,3.725,3.725,0,0,1-.109,2.305,3.782,3.782,0,0,1,3.111,3.11A3.677,3.677,0,0,1,8.342,18.4a3.878,3.878,0,0,1,1,.133,3.757,3.757,0,0,1,1.941,1.243,3.785,3.785,0,0,1,4.246-1.139,3.8,3.8,0,0,1,3.111-3.109,3.806,3.806,0,0,1,1.139-4.245,3.791,3.791,0,0,1-1.139-4.248,3.71,3.71,0,0,1-2.05-1.057,3.725,3.725,0,0,1-1.06-2.053,3.732,3.732,0,0,1-2.3.105,3.745,3.745,0,0,1-1.945-1.243,3.786,3.786,0,0,1-4.246,1.14A3.784,3.784,0,0,1,3.925,7.035a3.749,3.749,0,0,1,.105,2.3ZM1.261,11.892A2.428,2.428,0,0,1,2.777,13.56a2.426,2.426,0,0,1-.478,2.2.652.652,0,0,0,.609,1.058,2.462,2.462,0,0,1,2.835,2.833.651.651,0,0,0,1.056.611A2.473,2.473,0,0,1,10.673,21.3a.65.65,0,0,0,1.218,0,2.464,2.464,0,0,1,3.873-1.037.651.651,0,0,0,1.056-.611,2.462,2.462,0,0,1,2.835-2.833.652.652,0,0,0,.609-1.058,2.467,2.467,0,0,1,1.038-3.87.651.651,0,0,0,0-1.221A2.461,2.461,0,0,1,20.264,6.8a.652.652,0,0,0-.609-1.058A2.462,2.462,0,0,1,16.82,2.91.651.651,0,0,0,15.764,2.3a2.434,2.434,0,0,1-2.2.471,2.432,2.432,0,0,1-1.669-1.508.65.65,0,0,0-1.218,0A2.438,2.438,0,0,1,9,2.777,2.435,2.435,0,0,1,6.8,2.3a.651.651,0,0,0-1.056.611A2.462,2.462,0,0,1,2.909,5.743.652.652,0,0,0,2.3,6.8a2.467,2.467,0,0,1-1.038,3.87.651.651,0,0,0,0,1.221Zm8.833,33.637c-1.087-.008-2.2-.035-3.29-.061-1.038-.025-2.033-.049-2.975-.057a6.945,6.945,0,0,0-.587-2.4c.092.064.18.131.267.2a.652.652,0,0,0,1.056-.57,41.1,41.1,0,0,0-.71-4.775A17.057,17.057,0,0,1,5.1,41.1a.653.653,0,0,0,.613.474h.013a.652.652,0,0,0,.622-.449,10.786,10.786,0,0,1,1.481-2.982A22.609,22.609,0,0,0,7.1,42.153a.652.652,0,0,0,1.183.433,6.223,6.223,0,0,1,.841-.975,9.763,9.763,0,0,0-.307,2.564.654.654,0,0,0,1.13.46,4.418,4.418,0,0,1,.464-.442,5.04,5.04,0,0,0-.316,1.336Zm1.713-3.224a5.807,5.807,0,0,0-1.6.474,5.343,5.343,0,0,1,1.047-2.536.653.653,0,0,0-.767-.974A6.447,6.447,0,0,0,8.67,40.285a18.359,18.359,0,0,1,1.24-4.1.65.65,0,0,0-.9-.839,8.011,8.011,0,0,0-3.216,3.673,10.113,10.113,0,0,0-2.953-4.529.654.654,0,0,0-1.021.713,35.163,35.163,0,0,1,1.306,6.224,7.489,7.489,0,0,0-1.463-.562A.652.652,0,0,0,1,41.925a5.843,5.843,0,0,1,1.533,4.109.644.644,0,0,0,.18.478.652.652,0,0,0,.469.2c1.117,0,2.318.028,3.584.059,1.31.032,2.664.064,3.956.064a.645.645,0,0,0,.469-.2.664.664,0,0,0,.184-.477,3.915,3.915,0,0,1,1.034-2.779.65.65,0,0,0-.6-1.074Z" fill-rule="evenodd"/>
      </g>
    </g>
  </g>
</svg>
