<svg xmlns="http://www.w3.org/2000/svg" xmlns:xlink="http://www.w3.org/1999/xlink" width="90" height="89.999" viewBox="0 0 90 89.999">
  <defs>
    <clipPath id="clip-path">
      <rect id="Rectangle_411460" data-name="Rectangle 411460" width="46" height="53" transform="translate(17343 -9363)" fill="#fff" stroke="#707070" stroke-width="1" opacity="0"/>
    </clipPath>
  </defs>
  <g id="Group_1205045" data-name="Group 1205045" transform="translate(-17320.73 9385.506)">
    <g id="Group_1205042" data-name="Group 1205042" transform="translate(17320.73 -9385.506)">
      <g id="Group_1204237" data-name="Group 1204237" transform="translate(0)">
        <g id="Group_1204143" data-name="Group 1204143">
          <g id="Group_1188789" data-name="Group 1188789" transform="translate(0 0)">
            <path id="Path_1243039" data-name="Path 1243039" d="M37.05,0h0a37.05,37.05,0,0,1,0,74.1h0a37.05,37.05,0,0,1,0-74.1Z" transform="translate(7.951 7.949)" fill="#ffc94a"/>
            <rect id="Rectangle_400907" data-name="Rectangle 400907" width="80.438" height="80.437" rx="40.218" transform="translate(4.782 4.781)" fill="none"/>
            <g id="Group_1098742" data-name="Group 1098742" transform="translate(0)">
              <g id="Rectangle_400898" data-name="Rectangle 400898" transform="translate(0)" fill="none" stroke="#fff" stroke-width="2" opacity="0.859">
                <rect width="90" height="89.999" rx="44.999" stroke="none"/>
                <rect x="1" y="1" width="88" height="87.999" rx="43.999" fill="none"/>
              </g>
              <g id="Rectangle_400907-2" data-name="Rectangle 400907" transform="translate(0)" fill="none" stroke="#0f1f33" stroke-linecap="round" stroke-width="2">
                <rect width="90" height="89.999" rx="44.999" stroke="none"/>
                <rect x="1" y="1" width="88" height="87.999" rx="43.999" fill="none"/>
              </g>
            </g>
          </g>
        </g>
      </g>
    </g>
    <g id="Mask_Group_1099515" data-name="Mask Group 1099515" clip-path="url(#clip-path)">
      <g id="Cow" transform="translate(17343.004 -9359.49)">
        <path id="Path_1245373" data-name="Path 1245373" d="M32.806,29.567c0,.153-.3,1.8-1.059,6.272h2.712L36.3,29.567Z" fill="#b09482"/>
        <path id="Path_1245374" data-name="Path 1245374" d="M31.747,35.839h2.712L34.9,34.33H32.006Z" fill="#242c42"/>
        <path id="Path_1245375" data-name="Path 1245375" d="M35.254,22.279a4.053,4.053,0,0,0-3.91,5.136l-.34.1a.479.479,0,0,0,.264.92c.522-.153.326-.091.431-.139a4.058,4.058,0,0,0,2.228,1.888.072.072,0,0,0,0,.034l-.11.537a.489.489,0,0,0,.958.192c.153-.743.1-.479.11-.556a4.058,4.058,0,1,0,.4-8.1Z" fill="#e5426a"/>
        <circle id="Ellipse_12550" data-name="Ellipse 12550" cx="3.22" cy="3.22" r="3.22" transform="translate(32.629 22.399)" fill="#ef6f83"/>
        <path id="Path_1245376" data-name="Path 1245376" d="M43.28,15.279c0,5.706.053,5.429-.149,5.956l-.738,1.95c-.747,1.979,1.212,3.09.618,5.127l-2.218,7.527H38.081c.081-.479.958-5.591,1.035-6.075a2.6,2.6,0,0,0-.723-2.281l-1.183-1.188H23.046a1.351,1.351,0,0,0-1.318,1.049c-.637,2.8-.958,4.25-1.917,8.495H17.186c.12-2.688.168-3.728.45-9.889l-5.75.695-2.247,3.5a1.73,1.73,0,0,1-2.932-.077c-.632-1.116-1.917-3.354-2.966-5.222a2.4,2.4,0,0,1,.57-3.081c.8-.637,1.409-.987,1.581-1.917l.057-.287a2.209,2.209,0,0,1,.862-1.351l1.864-1.4c.316,1.437.254,1.155.345,1.557l7.187-5.841a10.6,10.6,0,0,1,6.669-2.362H38.158a5.127,5.127,0,0,1,5.122,5.122Z" fill="#eddcd2"/>
        <path id="Path_1245377" data-name="Path 1245377" d="M38.158,10.158H22.878a10.4,10.4,0,0,0-2.956.426c-2.63.762-3.387,1.687-10.579,7.518v1.375c1.782-1.447,5.989-4.873,6.88-5.582a10.6,10.6,0,0,1,6.655-2.362H38.158a5.127,5.127,0,0,1,5.122,5.122V15.279A5.127,5.127,0,0,0,38.158,10.158Z" fill="#f7f0e1"/>
        <path id="Path_1245378" data-name="Path 1245378" d="M43.28,15.279c0,5.711.048,5.433-.144,5.936l-.493,1.3a2.314,2.314,0,0,1-.676-1.629V17.057a3.958,3.958,0,0,0-1.159-2.8l-.867-.867V10.541h.153A5.127,5.127,0,0,1,43.28,15.279Z" fill="#ddbea9"/>
        <path id="Path_1245379" data-name="Path 1245379" d="M4.5,26.2l-.24.153a2.9,2.9,0,0,1-2.3.182l-1.49-.527,1.557-1.744a2.242,2.242,0,0,1,1.38-.723,2.448,2.448,0,0,0,.316,1.3Z" fill="#495a83"/>
        <path id="Path_1245380" data-name="Path 1245380" d="M17.637,25.95c-.441,9.626-.364,7.9-.45,9.889H13.895l2.4-9.731Z" fill="#b09482"/>
        <path id="Path_1245381" data-name="Path 1245381" d="M6.1,25.13a.48.48,0,1,1,.565-.776.767.767,0,0,0,1.112-.287.479.479,0,0,1,.637-.23c.968.45-.8,2.4-2.314,1.294Z" fill="#3d405b"/>
        <path id="Path_1245382" data-name="Path 1245382" d="M10.507,28.81l-.848,1.322a1.725,1.725,0,0,1-1.782.767,1.327,1.327,0,0,1-.287-.081,1.677,1.677,0,0,1-.882-.752l-.58-1.021a4.006,4.006,0,0,1,4.379-.235Z" fill="#ef6f83"/>
        <path id="Path_1245383" data-name="Path 1245383" d="M15.754,12.9v2.434a2.252,2.252,0,0,1-.656,1.591l-2.161,2.17a3.277,3.277,0,0,1-2.309.958H8.955V19.8a2.357,2.357,0,0,0,.067-1.437Z" fill="#cb997e"/>
        <path id="Path_1245384" data-name="Path 1245384" d="M7.762,35.839H4.988a3.694,3.694,0,0,0-.92-3.694A3.7,3.7,0,0,1,7.762,35.839Z" fill="#118ab2"/>
        <path id="Path_1245385" data-name="Path 1245385" d="M9.8,35.839H7.762A3.593,3.593,0,0,0,7.4,34.248a3.67,3.67,0,0,1,3.325-2.1,3.684,3.684,0,0,0-.92,3.694Z" fill="#06d6a0"/>
        <path id="Path_1245386" data-name="Path 1245386" d="M20.143,34.339l-.34,1.5H17.186l.067-1.509h2.884Z" fill="#3d405b"/>
        <path id="Path_1245387" data-name="Path 1245387" d="M17.253,34.33l-.067,1.509H13.895l.374-1.509Z" fill="#242c42"/>
        <path id="Path_1245388" data-name="Path 1245388" d="M41.239,34.33h-2.9l-.259,1.509h2.712Z" fill="#3d405b"/>
        <path id="Path_1245389" data-name="Path 1245389" d="M6.583,18.4c-1.011,1.011-.283,1.782-1.437,2.683l-.254.2V19.3a3.939,3.939,0,0,0-1.658-2.961H4.259A2.333,2.333,0,0,1,6.583,18.4Z" fill="#495a83"/>
        <path id="Path_1245390" data-name="Path 1245390" d="M41.727,11.609,39.95,13.387a2.769,2.769,0,0,1-1.955.81,2.769,2.769,0,0,0-1.96.81l-2.017,2.036a3.929,3.929,0,0,1-2.808,1.164H24.546a2.98,2.98,0,0,1-2.1-.867l-1.658-1.658a2.971,2.971,0,0,1-.867-2.1v-3a10.4,10.4,0,0,1,2.956-.426H38.158a5.113,5.113,0,0,1,3.57,1.452Z" fill="#cb997e"/>
        <path id="Path_1245391" data-name="Path 1245391" d="M30.267,14.657H25.954a.479.479,0,0,1,0-.958h4.312a.479.479,0,0,1,0,.958Z" fill="#e4b78d"/>
        <path id="Path_1245392" data-name="Path 1245392" d="M36.342,26.295H22.926l.369-1.629H35.158Z" fill="#ddbea9"/>
        <path id="Path_1245393" data-name="Path 1245393" d="M32.72,24.852h-5.27a.479.479,0,0,1,0-.958h5.27a.479.479,0,1,1,0,.958Z" fill="#fff1e6"/>
        <path id="Path_1245394" data-name="Path 1245394" d="M43.011,28.312,41.239,34.33H38.33c0-.048,0,.048.656-3.867A2.64,2.64,0,0,0,41.5,28.647l1.045-3.162a3.935,3.935,0,0,1,.47,2.827Z" fill="#ddbea9"/>
        <path id="Path_1245395" data-name="Path 1245395" d="M41.205,25.015l-.479,2.055a.4.4,0,0,1-.714.144l-.379-.532a.91.91,0,0,1,.077-1.145l.819-.882a.393.393,0,0,1,.676.359Z" fill="#ddbea9"/>
        <path id="Path_1245396" data-name="Path 1245396" d="M15.438,23.185h1.193a3.09,3.09,0,0,0,2.175-.9l1.567-1.572a.762.762,0,0,0-.537-1.3H18.542a3.038,3.038,0,0,0-2.2.958l-1.437,1.543a.762.762,0,0,0,.532,1.274Z" fill="#fff1e6"/>
        <path id="Path_1245397" data-name="Path 1245397" d="M15.754,12.9v1.375l-6.411,5.2V18.1Z" fill="#e4b78d"/>
        <path id="Path_1245398" data-name="Path 1245398" d="M41.727,11.609l-.762.762a5.146,5.146,0,0,0-2.808-.838H22.878a10.4,10.4,0,0,0-2.956.426V10.584a10.4,10.4,0,0,1,2.956-.426H38.158a5.113,5.113,0,0,1,3.57,1.452Z" fill="#e4b78d"/>
        <path id="Path_1245399" data-name="Path 1245399" d="M17.637,25.95l-5.75.695-2.247,3.5a1.734,1.734,0,0,1-2.127.666c.958-.57,1.437-.771,1.825-1.437l1.581-2.741a2.17,2.17,0,0,1,1.591-1.068c3.78-.5,3.162-.623,5.127.388Z" fill="#ddbea9"/>
        <path id="Path_1245400" data-name="Path 1245400" d="M10.507,28.81l-.848,1.322a1.73,1.73,0,0,1-1.782.767,1.969,1.969,0,0,1-.345-.1c1.682-.992,1.437-.743,2.333-2.3A3.747,3.747,0,0,1,10.507,28.81Z" fill="#ef4c6f"/>
        <path id="Path_1245401" data-name="Path 1245401" d="M21.4,28.776l-1.279,5.563H17.249l.283-6.071.637,1.825a1.2,1.2,0,0,0,2.113.292Z" fill="#ddbea9"/>
        <g id="Group_1205081" data-name="Group 1205081">
          <path id="Path_1245402" data-name="Path 1245402" d="M25.978,12.572a.479.479,0,0,0,0,.958H30.29a.479.479,0,1,0,0-.958Z" fill="#231f20"/>
          <path id="Path_1245403" data-name="Path 1245403" d="M8.418,23.837a.479.479,0,0,0-.637.23.767.767,0,0,1-1.112.287.48.48,0,0,0-.565.776c1.5,1.1,3.282-.843,2.314-1.294Z" fill="#231f20"/>
          <path id="Path_1245404" data-name="Path 1245404" d="M44.444,13.665c-2.841-2.841-2.233-2.247-2.4-2.4a5.615,5.615,0,0,0-3.91-1.6H35.585a.479.479,0,0,0,0,.958h2.573a4.614,4.614,0,0,1,2.875,1l-1.409,1.409A2.29,2.29,0,0,1,38,13.713a3.239,3.239,0,0,0-2.3.958L33.673,16.7a3.445,3.445,0,0,1-2.463,1.025H24.546A2.468,2.468,0,0,1,22.787,17L21.13,15.332a2.468,2.468,0,0,1-.728-1.758V10.953c1.73-.441,1.917-.316,12.28-.316a.479.479,0,1,0,0-.958c-10.541,0-10.838-.144-12.879.45a11.073,11.073,0,0,0-3.881,2.017L9.338,17.483l-.2-.8a.479.479,0,0,0-.752-.268L6.847,17.579a2.808,2.808,0,0,0-2.587-1.72H3.248a.479.479,0,0,0-.335.815l.723.728a2.674,2.674,0,0,1,.791,1.917v1.763l-.4.316a2.875,2.875,0,0,0-1.044,1.758,2.664,2.664,0,0,0-1.308.8L.12,25.686a.479.479,0,0,0,.206.776l1.49.5a3.354,3.354,0,0,0,2.5-.134L6.281,30.3a2.214,2.214,0,0,0,3.78.1l2.127-3.311,3.478-.422L13.521,35.36H10.167a3.191,3.191,0,0,1,.882-2.875.479.479,0,0,0-.34-.819,4.164,4.164,0,0,0-3.325,1.677,4.192,4.192,0,0,0-3.33-1.677.479.479,0,0,0-.34.819,3.205,3.205,0,0,1,.882,2.875H.479a.479.479,0,1,0,0,.958H20.967a.479.479,0,1,0,0-.958H20.4l1.8-7.91a.862.862,0,0,1,.848-.676h7.69a4.734,4.734,0,0,0,.153.776l-.249.072a.479.479,0,0,0,.268.92l.335-.1A4.494,4.494,0,0,0,32.3,29.763l-.958,5.6H25.26a.479.479,0,1,0,0,.958H42.954a.479.479,0,1,0,0-.958H41.435l2.036-6.914a3.316,3.316,0,0,0-.081-2.094l-.546-1.437a2.156,2.156,0,0,1,0-1.548c.762-2.012.915-2.252.915-2.913,0-5.673.034-5.5-.105-6.229a4.312,4.312,0,0,1,1.385,3.191v1.509a.479.479,0,1,0,.958,0V17.416a5.27,5.27,0,0,0-1.552-3.752ZM9.583,18.518l5.692-4.624v1.437a1.758,1.758,0,0,1-.517,1.251l-2.151,2.151c-.958.958-1.917.815-3.033.815a3.354,3.354,0,0,0,.01-1.03Zm-5.175-1.7A1.854,1.854,0,0,1,6.071,18.26a3.488,3.488,0,0,0-.685,1.691V19.3a3.6,3.6,0,0,0-.977-2.477Zm-3.09,8.964c1.126-1.255,1.2-1.437,1.667-1.629a5.389,5.389,0,0,0,.848,1.83A3.128,3.128,0,0,1,1.318,25.787Zm7.939,4.1a1.251,1.251,0,0,1-2.142-.057l-.355-.6a3.488,3.488,0,0,1,3.057-.2Zm7.877-3.392L16.8,33.85H14.882l1.8-7.307Zm-2.491,8.318h2.127l-.029.551H14.508Zm-9.492-2A3.22,3.22,0,0,1,7.24,35.36H5.587a4.188,4.188,0,0,0-.436-2.549ZM8.212,35.36a4.705,4.705,0,0,0-.283-1.1,3.2,3.2,0,0,1,1.71-1.437A4.178,4.178,0,0,0,9.2,35.374Zm9.477,0v-.551h1.83l-.125.551ZM31.7,26.774h5.3a8.908,8.908,0,0,1,1.332,1.409A3.589,3.589,0,0,1,31.7,26.774Zm5.975,8.586H35.1l1.37-4.643a4.571,4.571,0,0,0,2.2-1.37C38.67,29.62,38.733,29.16,37.679,35.36Zm-3.833-4.724-.129.642a.489.489,0,1,0,.958.192l.129-.623a2.779,2.779,0,0,0,.661,0l-.92,3H32.581l.594-3.493a4.647,4.647,0,0,0,.647.278ZM32.312,35.36l.1-.551h1.854l-.163.551Zm6.339,0,.091-.551H40.6l-.163.551ZM42.8,20.44c0,.436-.062.479-.858,2.578a3.172,3.172,0,0,0,0,2.223l.551,1.437a2.333,2.333,0,0,1,.057,1.49L40.879,33.85H38.905l.685-4.006a3.09,3.09,0,0,0-.858-2.7L36.5,24.915a4.02,4.02,0,0,1-1.179-2.875V20.325a.479.479,0,1,0-.958,0,10.849,10.849,0,0,0,.192,3.09H29.366a.479.479,0,0,0,0,.958h5.567a5.52,5.52,0,0,0,1.121,1.437c-14.24,0-13.128-.034-13.5.072l.771-3.407a.491.491,0,0,0-.958-.211C20.9,28.729,21.6,25.619,19.74,33.846H17.756l.359-7.882a.479.479,0,0,0-.537-.479l-5.75.695a.479.479,0,0,0-.345.22L10.32,28.206a4.451,4.451,0,0,0-4.053.172L4.149,24.6a1.917,1.917,0,0,1,.479-2.468c.848-.676,1.548-1.092,1.754-2.19l.057-.287a1.744,1.744,0,0,1,.666-1.068l1.284-.958.206.819a2.444,2.444,0,0,1-.316,1.917l-.747,1.169a.479.479,0,0,0,.8.5,16.682,16.682,0,0,0,.934-1.5h1.37a3.7,3.7,0,0,0,2.645-1.1l2.151-2.151a2.693,2.693,0,0,0,.8-1.917V13.128a10.325,10.325,0,0,1,3.21-1.883v2.329a3.431,3.431,0,0,0,1.011,2.439l1.658,1.658a3.407,3.407,0,0,0,2.434,1.016H31.21a4.4,4.4,0,0,0,3.129-1.294l2.036-2.06a2.276,2.276,0,0,1,1.619-.671,3.22,3.22,0,0,0,2.3-.958l1.437-1.437a4.619,4.619,0,0,1,1.088,2.975Z" fill="#231f20"/>
        </g>
      </g>
    </g>
  </g>
</svg>
