<svg xmlns="http://www.w3.org/2000/svg" xmlns:xlink="http://www.w3.org/1999/xlink" width="90" height="89.999" viewBox="0 0 90 89.999">
  <defs>
    <clipPath id="clip-path">
      <rect id="Rectangle_411460" data-name="Rectangle 411460" width="46" height="53" transform="translate(17343 -9363)" fill="#fff" stroke="#707070" stroke-width="1" opacity="0"/>
    </clipPath>
  </defs>
  <g id="Group_1205049" data-name="Group 1205049" transform="translate(-17320.73 9385.506)">
    <g id="Group_1205042" data-name="Group 1205042" transform="translate(17320.73 -9385.506)">
      <g id="Group_1204237" data-name="Group 1204237" transform="translate(0)">
        <g id="Group_1204143" data-name="Group 1204143">
          <g id="Group_1188789" data-name="Group 1188789" transform="translate(0 0)">
            <path id="Path_1243039" data-name="Path 1243039" d="M37.05,0h0a37.05,37.05,0,0,1,0,74.1h0a37.05,37.05,0,0,1,0-74.1Z" transform="translate(7.951 7.949)" fill="#ffc94a"/>
            <rect id="Rectangle_400907" data-name="Rectangle 400907" width="80.438" height="80.437" rx="40.218" transform="translate(4.782 4.781)" fill="none"/>
            <g id="Group_1098742" data-name="Group 1098742" transform="translate(0)">
              <g id="Rectangle_400898" data-name="Rectangle 400898" transform="translate(0)" fill="none" stroke="#fff" stroke-width="2" opacity="0.859">
                <rect width="90" height="89.999" rx="44.999" stroke="none"/>
                <rect x="1" y="1" width="88" height="87.999" rx="43.999" fill="none"/>
              </g>
              <g id="Rectangle_400907-2" data-name="Rectangle 400907" transform="translate(0)" fill="none" stroke="#0f1f33" stroke-linecap="round" stroke-width="2">
                <rect width="90" height="89.999" rx="44.999" stroke="none"/>
                <rect x="1" y="1" width="88" height="87.999" rx="43.999" fill="none"/>
              </g>
            </g>
          </g>
        </g>
      </g>
    </g>
    <g id="Mask_Group_1099514" data-name="Mask Group 1099514" clip-path="url(#clip-path)">
      <g id="vaca_2_" data-name="vaca (2)" transform="translate(17343 -9352.688)">
        <g id="Group_1205079" data-name="Group 1205079">
          <g id="Group_1205055" data-name="Group 1205055">
            <path id="Path_1245348" data-name="Path 1245348" d="M4.059,27.225H21.718v2.943H4.059Z" fill="#dfb28b"/>
          </g>
          <g id="Group_1205056" data-name="Group 1205056">
            <path id="Path_1245349" data-name="Path 1245349" d="M24.661,27.225H42.321v2.943H24.661Z" fill="#dfb28b"/>
          </g>
          <g id="Group_1205057" data-name="Group 1205057">
            <path id="Path_1245350" data-name="Path 1245350" d="M42.321,21.339v2.943H24.661V21.339H42.321Z" fill="#dfb28b"/>
          </g>
          <g id="Group_1205058" data-name="Group 1205058">
            <path id="Path_1245351" data-name="Path 1245351" d="M21.718,21.339v2.943H4.059V21.339H21.718Z" fill="#dfb28b"/>
          </g>
          <g id="Group_1205059" data-name="Group 1205059">
            <path id="Path_1245352" data-name="Path 1245352" d="M45.264,20.6V30.9a.738.738,0,0,1-.736.736H43.057a.738.738,0,0,1-.736-.736V20.6a.738.738,0,0,1,.736-.736h1.472A.738.738,0,0,1,45.264,20.6Z" fill="#d3a06c"/>
          </g>
          <g id="Group_1205060" data-name="Group 1205060">
            <path id="Path_1245353" data-name="Path 1245353" d="M24.661,30.168V30.9a.738.738,0,0,1-.736.736H22.454a.738.738,0,0,1-.736-.736V20.6a.738.738,0,0,1,.736-.736h1.472a.738.738,0,0,1,.736.736v9.566Z" fill="#d3a06c"/>
          </g>
          <g id="Group_1205061" data-name="Group 1205061">
            <path id="Path_1245354" data-name="Path 1245354" d="M4.059,30.168V30.9a.738.738,0,0,1-.736.736H1.851a.738.738,0,0,1-.736-.736V20.6a.738.738,0,0,1,.736-.736H3.323a.738.738,0,0,1,.736.736v9.566Z" fill="#d3a06c"/>
          </g>
          <g id="Group_1205062" data-name="Group 1205062">
            <path id="Path_1245355" data-name="Path 1245355" d="M43.241,12.148a6.606,6.606,0,0,1,.552,2.642v5.077h-.736a.738.738,0,0,0-.736.736v.736H28.341l.633-1.258a7.058,7.058,0,0,1,2.406-2.73,1.438,1.438,0,0,0-.795-2.634h-.177a1.443,1.443,0,0,0-1.015.419l-.147.147a3.079,3.079,0,0,1-3.885.39l-.971-.648c1.486-.515,2.48-1.45,2.48-2.516a2.1,2.1,0,0,0-.736-1.516V8.83l3.679-1.472,3.024.316.375,1.5a2.125,2.125,0,0,0,1.383,1.494,2.125,2.125,0,0,1,1.383,1.494l.074.272a2.023,2.023,0,0,0,1.972,1.545,2.066,2.066,0,0,0,1.133-.338l.92-.618a3.044,3.044,0,0,1,1.707-.515,3.088,3.088,0,0,0,1.45-.361Z" fill="#969faa"/>
          </g>
          <g id="Group_1205063" data-name="Group 1205063">
            <path id="Path_1245356" data-name="Path 1245356" d="M17.3,10.993a2.09,2.09,0,0,0-.736,1.516c0,1.626,2.3,2.943,5.151,2.943l1.472,4.415h-.736a.738.738,0,0,0-.736.736v.736H17.634a7.319,7.319,0,0,1,1.236-1.045,1.438,1.438,0,0,0-.795-2.634H17.9a1.443,1.443,0,0,0-1.015.419l-.147.147a3.079,3.079,0,0,1-3.885.39l-.971-.648c1.486-.515,2.48-1.45,2.48-2.516a2.1,2.1,0,0,0-.736-1.516V11.773L17.3,10.3Z" fill="#969faa"/>
          </g>
          <g id="Group_1205064" data-name="Group 1205064">
            <path id="Path_1245357" data-name="Path 1245357" d="M26.133,1.678v3.5a4.472,4.472,0,0,0-.449-.022h-.677c-.059-.059-.11-.118-.169-.177a4.353,4.353,0,0,0-2.023-1.155l1.575-2.627a.939.939,0,0,1,1.744.486Z" fill="#aab2bd"/>
          </g>
          <g id="Group_1205065" data-name="Group 1205065">
            <path id="Path_1245358" data-name="Path 1245358" d="M26.133,5.173a4.966,4.966,0,0,1,3.679,2.185L26.133,8.83V8.094a4.393,4.393,0,0,0-1.126-2.943h.677A4.472,4.472,0,0,1,26.133,5.173Z" fill="#aab2bd"/>
          </g>
          <g id="Group_1205066" data-name="Group 1205066">
            <path id="Path_1245359" data-name="Path 1245359" d="M17.752,5.151a4.472,4.472,0,0,0-.449.022v-3.5a.939.939,0,0,1,1.744-.486l1.575,2.627a4.418,4.418,0,0,0-2.193,1.332Z" fill="#aab2bd"/>
          </g>
          <g id="Group_1205067" data-name="Group 1205067">
            <path id="Path_1245360" data-name="Path 1245360" d="M17.752,5.151h.677A4.393,4.393,0,0,0,17.3,8.094V8.83L13.624,7.358A4.966,4.966,0,0,1,17.3,5.173a4.472,4.472,0,0,1,.449-.022Z" fill="#aab2bd"/>
          </g>
          <g id="Group_1205068" data-name="Group 1205068">
            <path id="Path_1245361" data-name="Path 1245361" d="M13.624,7.358v.758a4.472,4.472,0,0,0-.449-.022H12.5c-.059-.059-.11-.118-.169-.177a14.7,14.7,0,0,0-2.023-1.155L11.88,4.135a.939.939,0,0,1,1.744.486Z" fill="#aab2bd"/>
          </g>
          <g id="Group_1205069" data-name="Group 1205069">
            <path id="Path_1245362" data-name="Path 1245362" d="M8.113,6.762A4.418,4.418,0,0,0,5.92,8.094H5.243a4.473,4.473,0,0,0-.449.022v-3.5a.939.939,0,0,1,1.744-.486Z" fill="#aab2bd"/>
          </g>
          <g id="Group_1205070" data-name="Group 1205070">
            <path id="Path_1245363" data-name="Path 1245363" d="M5.243,8.094H5.92a4.393,4.393,0,0,0-1.126,2.943v.736L1.115,10.3A4.966,4.966,0,0,1,4.795,8.116,4.472,4.472,0,0,1,5.243,8.094Z" fill="#aab2bd"/>
          </g>
          <g id="Group_1205071" data-name="Group 1205071">
            <path id="Path_1245364" data-name="Path 1245364" d="M13.624,8.116A4.966,4.966,0,0,1,17.3,10.3l-3.679,1.472v-.736A4.393,4.393,0,0,0,12.5,8.094h.677A4.473,4.473,0,0,1,13.624,8.116Z" fill="#aab2bd"/>
          </g>
          <g id="Group_1205072" data-name="Group 1205072">
            <path id="Path_1245365" data-name="Path 1245365" d="M22.815,3.819a4.353,4.353,0,0,1,2.023,1.155c.059.059.11.118.169.177a4.393,4.393,0,0,1,1.126,2.943v2.9a6.585,6.585,0,0,0-4.415-1.427A6.585,6.585,0,0,0,17.3,10.993v-2.9a4.416,4.416,0,0,1,3.319-4.275,4.187,4.187,0,0,1,1.1-.14Z" fill="#ccd1d9"/>
          </g>
          <g id="Group_1205073" data-name="Group 1205073">
            <path id="Path_1245366" data-name="Path 1245366" d="M10.306,6.762a14.7,14.7,0,0,1,2.023,1.155c.059.059.11.118.169.177a4.393,4.393,0,0,1,1.126,2.943v2.9a6.585,6.585,0,0,0-4.415-1.427,6.585,6.585,0,0,0-4.415,1.427v-2.9A4.416,4.416,0,0,1,8.113,6.762a4.187,4.187,0,0,1,1.1-.14Z" fill="#ccd1d9"/>
          </g>
          <g id="Group_1205074" data-name="Group 1205074">
            <path id="Path_1245367" data-name="Path 1245367" d="M26.133,10.993a2.1,2.1,0,0,1,.736,1.516c0,1.067-.993,2-2.48,2.516a8.1,8.1,0,0,1-2.671.427c-2.848,0-5.151-1.317-5.151-2.943a2.09,2.09,0,0,1,.736-1.516,6.585,6.585,0,0,1,4.415-1.427,6.585,6.585,0,0,1,4.415,1.427Z" fill="#aab2bd"/>
          </g>
          <g id="Group_1205075" data-name="Group 1205075">
            <path id="Path_1245368" data-name="Path 1245368" d="M13.624,13.936a2.1,2.1,0,0,1,.736,1.516c0,1.067-.993,2-2.48,2.516a8.1,8.1,0,0,1-2.671.427c-2.848,0-5.151-1.317-5.151-2.943a2.1,2.1,0,0,1,.736-1.516,6.585,6.585,0,0,1,4.415-1.427,6.585,6.585,0,0,1,4.415,1.427Z" fill="#aab2bd"/>
          </g>
          <g id="Group_1205076" data-name="Group 1205076">
            <path id="Path_1245369" data-name="Path 1245369" d="M37.862,8.2a6.63,6.63,0,0,1,5.379,3.944h-.007a3.088,3.088,0,0,1-1.45.361,3.044,3.044,0,0,0-1.707.515l-.92.618a2.066,2.066,0,0,1-1.133.338,2.023,2.023,0,0,1-1.972-1.545l-.074-.272a2.125,2.125,0,0,0-1.383-1.494,2.125,2.125,0,0,1-1.383-1.494l-.375-1.5Z" fill="#e6e9ed"/>
          </g>
          <g id="Group_1205077" data-name="Group 1205077">
            <path id="Path_1245370" data-name="Path 1245370" d="M30.585,14.716a1.438,1.438,0,0,1,.795,2.634,7.058,7.058,0,0,0-2.406,2.73l-.633,1.258H24.661V20.6a.738.738,0,0,0-.736-.736H23.19l-1.472-4.415a8.1,8.1,0,0,0,2.671-.427l.971.648a3.079,3.079,0,0,0,3.885-.39l.147-.147a1.443,1.443,0,0,1,1.015-.419Z" fill="#e6e9ed"/>
          </g>
          <g id="Group_1205078" data-name="Group 1205078">
            <path id="Path_1245371" data-name="Path 1245371" d="M14.559,19.131a3.074,3.074,0,0,0,2.178-.905l.147-.147a1.443,1.443,0,0,1,1.015-.419h.177a1.438,1.438,0,0,1,.795,2.634,7.319,7.319,0,0,0-1.236,1.045H10.188L9.209,18.4a8.1,8.1,0,0,0,2.671-.427l.971.648a3.044,3.044,0,0,0,1.707.515Z" fill="#e6e9ed"/>
          </g>
        </g>
        <g id="Group_1205080" data-name="Group 1205080">
          <path id="Path_1245372" data-name="Path 1245372" d="M44.528,19.131V14.792a7.342,7.342,0,0,0-6.588-7.318L30.2,6.659a5.661,5.661,0,0,0-3.335-2.112V1.675A1.676,1.676,0,0,0,23.756.813L22.444,3a5.255,5.255,0,0,0-.726-.057A5.135,5.135,0,0,0,20.992,3L19.68.815a1.675,1.675,0,0,0-3.112.861V4.547a5.669,5.669,0,0,0-2.207.993V4.619a1.676,1.676,0,0,0-3.112-.862L9.936,5.943a5.255,5.255,0,0,0-.726-.057,5.135,5.135,0,0,0-.726.057L7.17,3.757a1.675,1.675,0,0,0-3.112.862V7.491A5.672,5.672,0,0,0,.5,9.893l-.5.755,4.059,1.623v1.377a2.71,2.71,0,0,0-.736,1.8c0,1.95,2.31,3.5,5.351,3.663l.5,1.488H4.795a1.473,1.473,0,0,0-1.472-1.472H1.851A1.473,1.473,0,0,0,.38,20.6V30.9a1.473,1.473,0,0,0,1.472,1.472H3.323A1.473,1.473,0,0,0,4.795,30.9H20.982a1.473,1.473,0,0,0,1.472,1.472h1.472A1.473,1.473,0,0,0,25.4,30.9H41.585a1.473,1.473,0,0,0,1.472,1.472h1.472A1.473,1.473,0,0,0,46,30.9V20.6A1.474,1.474,0,0,0,44.528,19.131ZM42.2,11.721a2.327,2.327,0,0,1-.415.052,3.8,3.8,0,0,0-2.115.641l-.92.613a1.3,1.3,0,0,1-1.983-.767l-.068-.273a2.843,2.843,0,0,0-1.867-2.015A1.378,1.378,0,0,1,33.922,9L33.8,8.518l3.984.419A5.87,5.87,0,0,1,42.2,11.721ZM26.851,7.75a5.1,5.1,0,0,0-.454-1.8,4.2,4.2,0,0,1,2.2,1.1Zm-1.9,8.533a3.813,3.813,0,0,0,4.813-.477l.149-.149a.71.71,0,0,1,.5-.205h.174a.7.7,0,0,1,.389,1.286,7.841,7.841,0,0,0-2.659,3.012l-.426.852H25.4a1.473,1.473,0,0,0-1.472-1.472h-.206l-1-3a8.6,8.6,0,0,0,1.552-.3Zm.448,8.735H41.585v1.472H25.4Zm0-1.472V22.074H41.585v1.472ZM20.982,20.6H19.631a2.166,2.166,0,0,0-1.558-3.679H17.9a2.159,2.159,0,0,0-1.537.636l-.149.149a2.384,2.384,0,0,1-2.831.361A3.178,3.178,0,0,0,15.1,15.452a2.71,2.71,0,0,0-.736-1.8V12.271l1.648-.659a2.471,2.471,0,0,0-.177.9c0,1.95,2.31,3.5,5.351,3.663l1,2.987A1.472,1.472,0,0,0,20.982,20.6Zm-6.64-9.91a5.1,5.1,0,0,0-.454-1.8,4.2,4.2,0,0,1,2.2,1.1Zm7.376,4.023c-2.6,0-4.415-1.163-4.415-2.207S19.116,10.3,21.718,10.3s4.415,1.163,4.415,2.207S24.32,14.716,21.718,14.716Zm3.3-13.146a.212.212,0,0,1,.379.105V4.415h-.082a5.178,5.178,0,0,0-1.416-.98ZM25.4,8.094V9.62a8.377,8.377,0,0,0-3.679-.79,8.377,8.377,0,0,0-3.679.79V8.094a3.679,3.679,0,0,1,7.358,0Zm-6.98-6.523,1.118,1.865a5.171,5.171,0,0,0-1.416.979h-.082V1.675a.212.212,0,0,1,.379-.1ZM17.038,5.955a5.116,5.116,0,0,0-.454,1.8l-1.748-.7A4.188,4.188,0,0,1,17.038,5.955ZM12.51,4.513a.212.212,0,0,1,.379.105V7.135l-.123.185a5.175,5.175,0,0,0-1.374-.942Zm.379,6.524v1.526a8.377,8.377,0,0,0-3.679-.79,8.377,8.377,0,0,0-3.679.79V11.037a3.679,3.679,0,0,1,7.358,0ZM5.909,4.514,7.027,6.379a5.171,5.171,0,0,0-1.416.979H5.53V4.619a.211.211,0,0,1,.378-.1ZM4.53,8.9a5.116,5.116,0,0,0-.454,1.8l-1.748-.7A4.188,4.188,0,0,1,4.53,8.9Zm.265,6.554c0-1.044,1.813-2.207,4.415-2.207s4.415,1.163,4.415,2.207-1.813,2.207-4.415,2.207S4.795,16.5,4.795,15.452Zm5.417,3.624a8.6,8.6,0,0,0,1.552-.3l.677.45a3.81,3.81,0,0,0,4.813-.475L17.4,18.6a.71.71,0,0,1,.5-.205h.174a.7.7,0,0,1,.389,1.286,7.8,7.8,0,0,0-1.118.921H10.719Zm10.771,3v1.472H4.795V22.074Zm0,2.943v1.472H4.795V25.018ZM1.851,30.9V20.6H3.323V30.9Zm2.943-1.472V27.961H20.982v1.472ZM22.454,30.9V20.6h1.472V30.9ZM25.4,29.432V27.961H41.585v1.472ZM41.585,20.6H29.531l.1-.194a6.368,6.368,0,0,1,2.16-2.446,2.174,2.174,0,0,0-1.206-3.982h-.174a2.16,2.16,0,0,0-1.537.636l-.149.149a2.386,2.386,0,0,1-2.831.361,3.179,3.179,0,0,0,1.714-2.618,2.71,2.71,0,0,0-.736-1.8V9.328l3.047-1.219,2.33.245.249,1a2.843,2.843,0,0,0,1.867,2.015,1.376,1.376,0,0,1,.9.976l.068.273a2.772,2.772,0,0,0,4.228,1.635l.919-.613a2.335,2.335,0,0,1,1.3-.393,3.816,3.816,0,0,0,1.027-.146,5.908,5.908,0,0,1,.249,1.693v4.34A1.473,1.473,0,0,0,41.585,20.6Zm1.472,10.3V20.6h1.472V30.9Z"/>
          <circle id="Ellipse_12542" data-name="Ellipse 12542" cx="0.736" cy="0.736" r="0.736" transform="translate(18.775 6.622)"/>
          <circle id="Ellipse_12543" data-name="Ellipse 12543" cx="0.736" cy="0.736" r="0.736" transform="translate(19.511 11.773)"/>
          <circle id="Ellipse_12544" data-name="Ellipse 12544" cx="0.736" cy="0.736" r="0.736" transform="translate(22.454 11.773)"/>
          <circle id="Ellipse_12545" data-name="Ellipse 12545" cx="0.736" cy="0.736" r="0.736" transform="translate(23.19 6.622)"/>
          <circle id="Ellipse_12546" data-name="Ellipse 12546" cx="0.736" cy="0.736" r="0.736" transform="translate(6.266 9.566)"/>
          <circle id="Ellipse_12547" data-name="Ellipse 12547" cx="0.736" cy="0.736" r="0.736" transform="translate(7.002 14.716)"/>
          <circle id="Ellipse_12548" data-name="Ellipse 12548" cx="0.736" cy="0.736" r="0.736" transform="translate(9.945 14.716)"/>
          <circle id="Ellipse_12549" data-name="Ellipse 12549" cx="0.736" cy="0.736" r="0.736" transform="translate(10.681 9.566)"/>
        </g>
      </g>
    </g>
  </g>
</svg>
