<svg xmlns="http://www.w3.org/2000/svg" xmlns:xlink="http://www.w3.org/1999/xlink" width="90" height="89.999" viewBox="0 0 90 89.999">
  <defs>
    <clipPath id="clip-path">
      <rect id="Rectangle_411460" data-name="Rectangle 411460" width="54" height="53" fill="#fff" stroke="#707070" stroke-width="1" opacity="0"/>
    </clipPath>
  </defs>
  <g id="Group_1205044" data-name="Group 1205044" transform="translate(-17320.73 9385.506)">
    <g id="Group_1205042" data-name="Group 1205042" transform="translate(17320.73 -9385.506)">
      <g id="Group_1204237" data-name="Group 1204237" transform="translate(0)">
        <g id="Group_1204143" data-name="Group 1204143">
          <g id="Group_1188789" data-name="Group 1188789" transform="translate(0 0)">
            <path id="Path_1243039" data-name="Path 1243039" d="M37.05,0h0a37.05,37.05,0,0,1,0,74.1h0a37.05,37.05,0,0,1,0-74.1Z" transform="translate(7.951 7.949)" fill="#ffc94a"/>
            <rect id="Rectangle_400907" data-name="Rectangle 400907" width="80.438" height="80.437" rx="40.218" transform="translate(4.782 4.781)" fill="none"/>
            <g id="Group_1098742" data-name="Group 1098742" transform="translate(0)">
              <g id="Rectangle_400898" data-name="Rectangle 400898" transform="translate(0)" fill="none" stroke="#fff" stroke-width="2" opacity="0.859">
                <rect width="90" height="89.999" rx="44.999" stroke="none"/>
                <rect x="1" y="1" width="88" height="87.999" rx="43.999" fill="none"/>
              </g>
              <g id="Rectangle_400907-2" data-name="Rectangle 400907" transform="translate(0)" fill="none" stroke="#0f1f33" stroke-linecap="round" stroke-width="2">
                <rect width="90" height="89.999" rx="44.999" stroke="none"/>
                <rect x="1" y="1" width="88" height="87.999" rx="43.999" fill="none"/>
              </g>
            </g>
          </g>
        </g>
      </g>
    </g>
    <g id="Mask_Group_1099511" data-name="Mask Group 1099511" transform="translate(17338.951 -9363)" clip-path="url(#clip-path)">
      <g id="vaca" transform="translate(0 4.31)">
        <g id="Group_1205050" data-name="Group 1205050" transform="translate(0.791 0.792)">
          <path id="Path_1245298" data-name="Path 1245298" d="M44.447,21.072c3.249,0,6.72-1.65,8.048-4.006a7.955,7.955,0,0,0,.714-3.318,3.039,3.039,0,0,0-3.19-3.262c-3.758,0-9.116,2.4-11.627,3.635l1.719,6.662a19.734,19.734,0,0,0,4.337.289Z" transform="translate(-0.791 -5.602)" fill="#c38778"/>
          <path id="Path_1245299" data-name="Path 1245299" d="M9.626,21.036a28.864,28.864,0,0,0,7.383-1.123l1.152-5.075H17.009S9.042,10.486,3.981,10.486a3.747,3.747,0,0,0-.969.123,4.141,4.141,0,0,0-1.524,3.128C1.488,17.577,4.588,21.036,9.626,21.036Z" transform="translate(-0.791 -5.602)" fill="#c38778"/>
          <path id="Path_1245300" data-name="Path 1245300" d="M44.447,20.334a19.728,19.728,0,0,1-4.337-.289s-.718-2.924-1.719-5.924c-.871.429-1.4.718-1.4.718H18.161l-1.951,4.89a43.466,43.466,0,0,1-6.658.606c-4.445,0-7.18-3.121-7.18-6.586a6.508,6.508,0,0,1,.639-3.139A3.022,3.022,0,0,0,.791,13.747c0,4.59,3.755,8.168,8.762,8.168a29.377,29.377,0,0,0,5.6-.5H38.844a29.379,29.379,0,0,0,5.6.5,8.622,8.622,0,0,0,8.048-4.85A10.512,10.512,0,0,1,44.447,20.334Z" transform="translate(-0.791 -5.602)" fill="#8c5e5e"/>
          <path id="Path_1245301" data-name="Path 1245301" d="M36.991,14.838h-18.4s-4.25,10.7-4.25,16.449c0,5.145,4.382,9.213,4.382,9.213l2.109,3.738c.312,2.481,1.709,3.211,3.223,3.211h6.671c1.191,0,2.033-.939,2.585-1.254a5.29,5.29,0,0,0,.351-.961l.07-4.941,3.222-.589A12.836,12.836,0,0,0,40.5,31.287c0-5.748-3.512-16.449-3.512-16.449Z" transform="translate(-0.791 -5.602)" fill="#c38778"/>
          <path id="Path_1245302" data-name="Path 1245302" d="M36.955,39.7a15.468,15.468,0,0,0-2.235-4.872,28.244,28.244,0,0,1-2.236-10.809c0-5.175,1.181-7.334,1.181-7.334h-3.47L19.461,39.867s-4.382-3.435-4.382-8.58c0-5.748,3.511-16.449,3.511-16.449H17.009S13.5,25.539,13.5,31.287s4.7,9.541,4.7,9.541l2.14,4.406s.725,3.164,3.386,3.164h6.553a3.41,3.41,0,0,0,3.035-2.2,5.135,5.135,0,0,1-2.585.621H24.055c-1.515,0-2.173-.73-2.485-3.211,0,0,9.551-.55,13.73-1.744l.5-1.033A11.626,11.626,0,0,0,36.955,39.7Z" transform="translate(-0.791 -5.602)" fill="#8c5e5e"/>
          <path id="Path_1245303" data-name="Path 1245303" d="M13.786,6.266a1.166,1.166,0,0,0-.921-.655c-2.453,4.236.038,7.917,4.66,7.917l1.27-3.223a7.411,7.411,0,0,1-5.009-4.038Z" transform="translate(-0.791 -5.602)" fill="#fff0af"/>
          <path id="Path_1245304" data-name="Path 1245304" d="M12.865,5.61a1.154,1.154,0,0,0-1.276.873c-1.393,5.567,1.694,7.264,5.42,8.355l.516-1.31C13.761,12.394,11.616,10.507,12.865,5.61Z" transform="translate(-0.791 -5.602)" fill="#ffd064"/>
          <path id="Path_1245305" data-name="Path 1245305" d="M42.411,6.483a1.175,1.175,0,0,0-2.2-.218,7.088,7.088,0,0,1-3.381,3.422,33.964,33.964,0,0,0,.621,4.158c1.988-.763,4.209-1.894,5.227-3.9a8.869,8.869,0,0,0-.27-3.463Z" transform="translate(-0.791 -5.602)" fill="#fff0af"/>
          <path id="Path_1245306" data-name="Path 1245306" d="M36.833,9.687a10.387,10.387,0,0,1-1.628.617l1.786,4.534c2.806-.821,5.249-1.987,5.689-4.891a11.371,11.371,0,0,1-4.666,2.917,18.564,18.564,0,0,0-1.182-3.177Z" transform="translate(-0.791 -5.602)" fill="#ffd064"/>
          <path id="Path_1245307" data-name="Path 1245307" d="M36.991,14.838l-.9-2.9A4.746,4.746,0,0,0,31.561,8.6H22.439a4.738,4.738,0,0,0-1.263.172,4.813,4.813,0,0,0-2.427,3.172l-.611,1.975s5.8,2.122,5.8,10.106a36.722,36.722,0,0,1-1.887,11.652H33.526A27.775,27.775,0,0,1,30.9,24.024c0-7.984,6.09-9.186,6.09-9.186Z" transform="translate(-0.791 -5.602)" fill="#f5fcff"/>
          <path id="Path_1245308" data-name="Path 1245308" d="M18.876,13.918l.611-1.975a6.061,6.061,0,0,1,1.689-3.172A4.746,4.746,0,0,0,17.9,11.943l-.9,2.9s6.09,1.2,6.09,9.186a27.775,27.775,0,0,1-2.625,11.652h1.582A27.775,27.775,0,0,0,24.68,24.024c0-7.984-5.8-10.106-5.8-10.106Z" transform="translate(-0.791 -5.602)" fill="#d8e2f3"/>
          <path id="Path_1245309" data-name="Path 1245309" d="M33.527,35.676c-1.385-1.385-7.645-1.675-11.071-.87-1.611.87-3.706,5.081-3.706,7.939a1.46,1.46,0,0,0,1.588,1.645H33.663a3.091,3.091,0,0,0,2.377-1.32c.011-.12.019-.244.019-.372,0-2.067-1.444-5.936-2.531-7.023Z" transform="translate(-0.791 -5.602)" fill="#ffcdbe"/>
          <path id="Path_1245310" data-name="Path 1245310" d="M20.338,43.653c-.467,0-.85-.136-.85-.907,0-2.859,1.552-6.57,2.968-7.939a4.342,4.342,0,0,0-1.982.87c-1.087,1.087-2.531,4.955-2.531,7.023a2.249,2.249,0,0,0,2.4,2.536H33.663a2.187,2.187,0,0,0,2.377-2.164,4.588,4.588,0,0,1-2.377.582H20.338Z" transform="translate(-0.791 -5.602)" fill="#ebae9d"/>
        </g>
        <g id="Group_1205051" data-name="Group 1205051" transform="translate(0)">
          <path id="Path_1245311" data-name="Path 1245311" d="M30.277,49.19H23.724c-2.509,0-3.608-2.2-3.98-3.206A3,3,0,0,1,17.151,42.7a8.459,8.459,0,0,1,.179-1.58c-1.188-1.1-4.623-4.713-4.623-9.831A42.317,42.317,0,0,1,14.062,22.4a33.083,33.083,0,0,1-4.509.307.791.791,0,1,1,0-1.582,30.571,30.571,0,0,0,4.923-.388c.6-2.336,1.208-4.332,1.536-5.378a10.466,10.466,0,0,1-3.521-1.8,23.977,23.977,0,0,0-8.51-2.284,2.26,2.26,0,0,0-2.4,2.471,7.269,7.269,0,0,0,5.265,6.972.791.791,0,0,1-.475,1.509A8.825,8.825,0,0,1,0,13.747,3.844,3.844,0,0,1,3.981,9.695a20.893,20.893,0,0,1,6.836,1.5,8.386,8.386,0,0,1,0-4.905,1.937,1.937,0,0,1,1.686-1.469A1.963,1.963,0,0,1,14.5,5.915,6.473,6.473,0,0,0,18.548,9.4a5.516,5.516,0,0,1,3.891-1.589h4.6a.791.791,0,1,1,0,1.582h-4.6a3.936,3.936,0,0,0-3.778,2.786L18,14.313a8.856,8.856,0,0,1,5.5,6.4.791.791,0,0,1-1.534.387,7.36,7.36,0,0,0-4.445-5.27c-.781,2.508-3.237,10.765-3.237,15.46a12.238,12.238,0,0,0,3.5,8.054,12.53,12.53,0,0,1,2.027-4.123,27.409,27.409,0,0,0,2.49-11.194.791.791,0,1,1,1.582,0A29.008,29.008,0,0,1,22.016,34.1a18.006,18.006,0,0,1,3.357-.478.791.791,0,1,1,.094,1.579c-2.478.148-4,.622-4.425,1.029l-.019.019A13.3,13.3,0,0,0,18.733,42.7c0,1.174.525,1.745,1.6,1.745H33.662c1.08,0,1.6-.571,1.6-1.745a13.3,13.3,0,0,0-2.289-6.453l-.02-.02c-.422-.407-1.947-.881-4.425-1.029a.791.791,0,1,1,.094-1.579,18.016,18.016,0,0,1,3.357.478A29.008,29.008,0,0,1,30.11,24.024c0-4.426,1.807-6.9,3.322-8.189A8.713,8.713,0,0,1,36,14.315l-.662-2.139A3.936,3.936,0,0,0,31.561,9.39H30.206a.791.791,0,1,1,0-1.582h1.355A5.515,5.515,0,0,1,35.452,9.4,6.474,6.474,0,0,0,39.5,5.915a1.962,1.962,0,0,1,1.987-1.092,1.937,1.937,0,0,1,1.686,1.469,8.386,8.386,0,0,1,0,4.905,20.894,20.894,0,0,1,6.836-1.5A3.844,3.844,0,0,1,54,13.747a8.825,8.825,0,0,1-6.372,8.48.791.791,0,1,1-.475-1.509,7.269,7.269,0,0,0,5.266-6.971,2.26,2.26,0,0,0-2.4-2.471,23.977,23.977,0,0,0-8.51,2.284,10.468,10.468,0,0,1-3.521,1.8c.328,1.046.932,3.042,1.536,5.378a30.584,30.584,0,0,0,4.923.388.791.791,0,1,1,0,1.582,33.082,33.082,0,0,1-4.509-.307,42.317,42.317,0,0,1,1.356,8.887c0,5.118-3.435,8.734-4.623,9.831a8.46,8.46,0,0,1,.179,1.58,3,3,0,0,1-2.593,3.286c-.371,1.008-1.471,3.206-3.98,3.206Zm-8.793-3.164a2.561,2.561,0,0,0,2.24,1.582h6.553a2.561,2.561,0,0,0,2.24-1.582Zm12.7-10.808a12.528,12.528,0,0,1,2.028,4.124,12.238,12.238,0,0,0,3.5-8.054c0-4.7-2.458-12.962-3.238-15.465-1.462.561-4.781,2.467-4.781,8.2a27.3,27.3,0,0,0,2.489,11.193Zm2.258-24.5a5.617,5.617,0,0,1,.412.988l.662,2.139c3.479-1.148,5.221-2.815,4.13-7.173a.352.352,0,0,0-.321-.28.383.383,0,0,0-.4.221,7.924,7.924,0,0,1-4.483,4.1ZM12.724,6.393l-.046,0a.352.352,0,0,0-.321.28c-1.09,4.358.651,6.025,4.13,7.173l.662-2.139a5.619,5.619,0,0,1,.412-.988,7.924,7.924,0,0,1-4.483-4.1.378.378,0,0,0-.354-.224Zm17.27,35.226a.791.791,0,0,1-.564-1.345,4.252,4.252,0,0,0,1.239-2.211.791.791,0,1,1,1.582,0c0,1.556-1.519,3.144-1.693,3.32A.788.788,0,0,1,29.994,41.619Zm-5.988,0a.787.787,0,0,1-.563-.236c-.173-.176-1.693-1.764-1.693-3.32a.791.791,0,1,1,1.582,0,4.252,4.252,0,0,0,1.239,2.211.791.791,0,0,1-.565,1.345ZM35.671,28.09a.791.791,0,0,1-.791-.791V24.16a.791.791,0,1,1,1.582,0V27.3A.791.791,0,0,1,35.671,28.09Zm-17.342,0a.791.791,0,0,1-.791-.791V24.16a.791.791,0,0,1,1.582,0V27.3A.791.791,0,0,1,18.329,28.09ZM31.662,15.629a7.5,7.5,0,0,1-5.077-2.661A.791.791,0,1,1,27.838,12a5.951,5.951,0,0,0,3.824,2.045.791.791,0,0,1,0,1.582Zm-6.223,0a7.5,7.5,0,0,1-5.077-2.661A.791.791,0,1,1,21.616,12a5.951,5.951,0,0,0,3.824,2.045.791.791,0,1,1,0,1.582Z" transform="translate(0 -4.81)"/>
        </g>
      </g>
    </g>
  </g>
</svg>
