<svg xmlns="http://www.w3.org/2000/svg" xmlns:xlink="http://www.w3.org/1999/xlink" width="90" height="89.999" viewBox="0 0 90 89.999">
  <defs>
    <clipPath id="clip-path">
      <rect id="Rectangle_411460" data-name="Rectangle 411460" width="46" height="53" transform="translate(17343 -9363)" fill="#fff" stroke="#707070" stroke-width="1" opacity="0"/>
    </clipPath>
  </defs>
  <g id="Group_1205046" data-name="Group 1205046" transform="translate(-17320.73 9385.506)">
    <g id="Group_1205042" data-name="Group 1205042" transform="translate(17320.73 -9385.506)">
      <g id="Group_1204237" data-name="Group 1204237" transform="translate(0)">
        <g id="Group_1204143" data-name="Group 1204143">
          <g id="Group_1188789" data-name="Group 1188789" transform="translate(0 0)">
            <path id="Path_1243039" data-name="Path 1243039" d="M37.05,0h0a37.05,37.05,0,0,1,0,74.1h0a37.05,37.05,0,0,1,0-74.1Z" transform="translate(7.951 7.949)" fill="#ffc94a"/>
            <rect id="Rectangle_400907" data-name="Rectangle 400907" width="80.438" height="80.437" rx="40.218" transform="translate(4.782 4.781)" fill="none"/>
            <g id="Group_1098742" data-name="Group 1098742" transform="translate(0)">
              <g id="Rectangle_400898" data-name="Rectangle 400898" transform="translate(0)" fill="none" stroke="#fff" stroke-width="2" opacity="0.859">
                <rect width="90" height="89.999" rx="44.999" stroke="none"/>
                <rect x="1" y="1" width="88" height="87.999" rx="43.999" fill="none"/>
              </g>
              <g id="Rectangle_400907-2" data-name="Rectangle 400907" transform="translate(0)" fill="none" stroke="#0f1f33" stroke-linecap="round" stroke-width="2">
                <rect width="90" height="89.999" rx="44.999" stroke="none"/>
                <rect x="1" y="1" width="88" height="87.999" rx="43.999" fill="none"/>
              </g>
            </g>
          </g>
        </g>
      </g>
    </g>
    <g id="Mask_Group_1099513" data-name="Mask Group 1099513" clip-path="url(#clip-path)">
      <g id="granja-inteligente" transform="translate(17343 -9358.708)">
        <path id="Path_1245323" data-name="Path 1245323" d="M39.459,20.3V38.9a1.783,1.783,0,0,1-3.566,0V31.381a.9.9,0,0,0-.9-.9H29.1a.9.9,0,0,0-.9.9V38.9a1.783,1.783,0,0,1-3.566,0V20.3a2.526,2.526,0,0,1,.434-1.418h0a2.526,2.526,0,0,1,2.1-1.113h9.761A2.529,2.529,0,0,1,39.459,20.3Zm0,0" fill="#ffeee1"/>
        <path id="Path_1245324" data-name="Path 1245324" d="M29.93,30.482H29.1a.9.9,0,0,0-.9.9v3.344a3.327,3.327,0,0,1-3.566-.535V29.2a3.325,3.325,0,0,1,5.293,1.282Zm0,0" fill="#618baa"/>
        <path id="Path_1245325" data-name="Path 1245325" d="M39.46,20.326v4.637H37.732c-.013.036-.023.072-.036.108a6.055,6.055,0,0,1-1.4,2.207A6,6,0,0,1,26.4,25.07c-.012-.035-.023-.071-.036-.107H24.637V20.326h1.409v-1.16a3.037,3.037,0,0,1-.974-.284,2.526,2.526,0,0,1,2.1-1.113h9.76a2.529,2.529,0,0,1,2.1,1.11,3.037,3.037,0,0,1-.973.287v1.16Zm0,0" fill="#fecbaa"/>
        <path id="Path_1245326" data-name="Path 1245326" d="M19.694,20.3V38.9a1.783,1.783,0,0,1-3.566,0V31.381a.9.9,0,0,0-.9-.9H9.336a.9.9,0,0,0-.9.9V38.9a1.783,1.783,0,0,1-3.566,0V20.3a2.523,2.523,0,0,1,.434-1.418h0a2.526,2.526,0,0,1,2.1-1.113h9.76A2.53,2.53,0,0,1,19.694,20.3Zm0,0" fill="#ffeee1"/>
        <path id="Path_1245327" data-name="Path 1245327" d="M19.694,20.326v4.637H17.966c-.013.036-.023.072-.036.108a6.055,6.055,0,0,1-1.4,2.207A6,6,0,0,1,6.635,25.07c-.012-.035-.023-.071-.036-.107H4.872V20.326H6.28v-1.16a3.037,3.037,0,0,1-.974-.284,2.526,2.526,0,0,1,2.1-1.113h9.76a2.529,2.529,0,0,1,2.1,1.11,3.037,3.037,0,0,1-.973.287v1.16Zm0,0" fill="#fecbaa"/>
        <path id="Path_1245328" data-name="Path 1245328" d="M19.694,33.223V38.9a1.783,1.783,0,0,1-3.566,0V33.223Zm0,0" fill="#618baa"/>
        <path id="Path_1245329" data-name="Path 1245329" d="M6.983,29.584A2.11,2.11,0,0,1,4.872,31.7V27.473a2.111,2.111,0,0,1,2.111,2.111Zm0,0" fill="#618baa"/>
        <path id="Path_1245330" data-name="Path 1245330" d="M.674,21.4H45.326v2.481H.674Zm0,0" fill="#e3f4ff"/>
        <path id="Path_1245331" data-name="Path 1245331" d="M19.912,16.119a1.991,1.991,0,0,1-1.991,1.991h-.714v4.924a4.924,4.924,0,1,1-9.849,0V18.11H6.644a1.99,1.99,0,0,1-1.991-1.991.881.881,0,0,1,.881-.881h.752A1.875,1.875,0,0,0,7.9,14.314a1.878,1.878,0,0,1,1.617-.923h5.524a1.878,1.878,0,0,1,1.617.923,1.878,1.878,0,0,0,1.617.924h.752a.881.881,0,0,1,.881.881Zm0,0" fill="#ffeee1"/>
        <path id="Path_1245332" data-name="Path 1245332" d="M14.745,23.034h2.462V18.11H14.745a2.462,2.462,0,0,0,0,4.924Zm0,0" fill="#618baa"/>
        <path id="Path_1245333" data-name="Path 1245333" d="M16.916,24.7a4.926,4.926,0,0,1-9.266,0Zm0,0" fill="#ffae85"/>
        <path id="Path_1245334" data-name="Path 1245334" d="M39.678,16.119a1.991,1.991,0,0,1-1.991,1.991h-.714v4.924a4.924,4.924,0,1,1-9.849,0V18.11h-.714a1.991,1.991,0,0,1-1.991-1.991.881.881,0,0,1,.882-.881h.752a1.875,1.875,0,0,0,1.617-.924,1.878,1.878,0,0,1,1.617-.923H34.81a1.877,1.877,0,0,1,1.617.923,1.878,1.878,0,0,0,1.617.924H38.8a.88.88,0,0,1,.881.881Zm0,0" fill="#ffeee1"/>
        <path id="Path_1245335" data-name="Path 1245335" d="M34.752,13.391v1.845a2.66,2.66,0,0,1-5.319,0V13.391Zm0,0" fill="#618baa"/>
        <path id="Path_1245336" data-name="Path 1245336" d="M36.681,24.7a4.926,4.926,0,0,1-9.266,0Zm0,0" fill="#ffae85"/>
        <path id="Path_1245337" data-name="Path 1245337" d="M43.57,37.323v1.35H2.43v-1.35a2.073,2.073,0,0,1,.035-.384A2.169,2.169,0,0,1,4.6,35.153H41.4a2.169,2.169,0,0,1,2.136,1.785,2.073,2.073,0,0,1,.035.384Zm0,0" fill="#5be167"/>
        <path id="Path_1245338" data-name="Path 1245338" d="M43.57,37.323v1.35H2.43v-1.35a2.073,2.073,0,0,1,.035-.384H43.535a2.073,2.073,0,0,1,.035.384Zm0,0" fill="#1fc974"/>
        <path id="Path_1245339" data-name="Path 1245339" d="M44.415,43.743H1.585a.911.911,0,0,1-.911-.911v-3.9a.912.912,0,0,1,.911-.911H44.415a.912.912,0,0,1,.911.911v3.9A.911.911,0,0,1,44.415,43.743Zm0,0" fill="#e3f4ff"/>
        <path id="Path_1245340" data-name="Path 1245340" d="M42.583,7.507H3.417a.9.9,0,0,1-.9-.9V3.915H43.481V6.609a.9.9,0,0,1-.9.9Zm0,0" fill="#64bdff"/>
        <path id="Path_1245341" data-name="Path 1245341" d="M44.427,4.861H1.573A.9.9,0,0,1,.75,3.6L1.8,1.211A.9.9,0,0,1,2.621.674H43.379a.9.9,0,0,1,.823.538L45.25,3.6a.9.9,0,0,1-.823,1.259Zm0,0" fill="#e3f4ff"/>
        <path id="Path_1245342" data-name="Path 1245342" d="M39.459,27.007a.674.674,0,0,0,.674-.674V24.559h5.193a.674.674,0,0,0,0-1.348H37.642c0-.059,0-.118,0-.178v-.956h7.68a.674.674,0,0,0,0-1.348H40.133V20.3a3.2,3.2,0,0,0-.785-2.1,2.66,2.66,0,0,0,1-2.081A1.557,1.557,0,0,0,38.8,14.564h-.752a1.21,1.21,0,0,1-1.037-.592,2.562,2.562,0,0,0-2.2-1.255H29.286a2.562,2.562,0,0,0-2.2,1.255,1.209,1.209,0,0,1-1.037.592H25.3a1.557,1.557,0,0,0-1.555,1.555,2.66,2.66,0,0,0,1,2.082,3.215,3.215,0,0,0-.785,2.1v.43h-3.6V20.3a3.193,3.193,0,0,0-.784-2.1,2.66,2.66,0,0,0,1-2.081,1.557,1.557,0,0,0-1.555-1.555h-.752a1.209,1.209,0,0,1-1.037-.592,2.563,2.563,0,0,0-2.2-1.255H9.521a2.563,2.563,0,0,0-2.2,1.255,1.209,1.209,0,0,1-1.037.592H5.534a1.557,1.557,0,0,0-1.555,1.555,2.66,2.66,0,0,0,1,2.081A3.2,3.2,0,0,0,4.2,20.3v.43H.674a.674.674,0,0,0,0,1.348H6.685v.956c0,.06,0,.119,0,.178H.674a.674.674,0,0,0,0,1.348H4.2v2.906s0,.005,0,.008,0,.005,0,.008v4.207s0,.005,0,.008,0,.005,0,.008v2.806a2.848,2.848,0,0,0-2.441,2.815v.02H1.585A1.587,1.587,0,0,0,0,38.928v3.9a1.587,1.587,0,0,0,1.585,1.585H44.415A1.587,1.587,0,0,0,46,42.832v-3.9a1.587,1.587,0,0,0-1.585-1.585h-.172v-.019A2.847,2.847,0,0,0,41.4,34.48H40.133V29.4a.674.674,0,0,0-1.348,0V34.48H36.568v-3.1A1.574,1.574,0,0,0,35,29.809H30.36A4,4,0,0,0,25.311,28v-3.44h1.352c.031.11.065.219.1.326a.617.617,0,0,0,.031.088,5.6,5.6,0,0,0,10.5,0,.686.686,0,0,0,.031-.087q.056-.161.1-.326h1.352v1.774a.674.674,0,0,0,.674.674ZM38.785,20.3v.43H37.646V18.784h.041a2.719,2.719,0,0,0,.29-.016,1.856,1.856,0,0,1,.809,1.532Zm-8.679-6.235h3.972v1.171a1.986,1.986,0,0,1-3.972,0ZM25.3,15.912h.752a2.562,2.562,0,0,0,2.2-1.255,1.206,1.206,0,0,1,.51-.47v1.049a3.334,3.334,0,0,0,6.667,0v-1a1.2,1.2,0,0,1,.421.421,2.562,2.562,0,0,0,2.2,1.255H38.8a.208.208,0,0,1,.208.207,1.319,1.319,0,0,1-1.317,1.317h-.715a.674.674,0,0,0-.674.674v4.924a4.223,4.223,0,0,1-.119,1H27.918a4.242,4.242,0,0,1-.119-1V18.11a.674.674,0,0,0-.674-.674h-.715a1.319,1.319,0,0,1-1.317-1.317.208.208,0,0,1,.208-.207Zm.011,4.389a1.865,1.865,0,0,1,.809-1.532,2.719,2.719,0,0,0,.29.016h.041V20.73H25.312V20.3Zm-6.292,0v.43H17.881V18.784h.041a2.706,2.706,0,0,0,.289-.016A1.851,1.851,0,0,1,19.02,20.3Zm-4.275,2.06a1.788,1.788,0,0,1,0-3.577h1.788V22.36Zm-9.21-6.449h.752a2.562,2.562,0,0,0,2.2-1.255,1.209,1.209,0,0,1,1.037-.592h5.524a1.208,1.208,0,0,1,1.037.592,2.562,2.562,0,0,0,2.2,1.255h.752a.208.208,0,0,1,.208.207,1.319,1.319,0,0,1-1.317,1.317H14.745a3.136,3.136,0,0,0,0,6.272h1.734c-.018.109-.04.217-.065.323H8.152a4.244,4.244,0,0,1-.119-1V18.11a.674.674,0,0,0-.674-.674H6.644a1.319,1.319,0,0,1-1.317-1.317.208.208,0,0,1,.207-.207Zm10.291,9.467a4.246,4.246,0,0,1-7.085,0ZM5.546,20.73V20.3a1.855,1.855,0,0,1,.809-1.532,2.731,2.731,0,0,0,.29.016h.041V20.73ZM6.9,24.559q.047.165.1.326a.665.665,0,0,0,.031.088,5.6,5.6,0,0,0,10.5,0,.634.634,0,0,0,.03-.087c.038-.107.072-.216.1-.326H19.02v7.989H16.8V31.381a1.574,1.574,0,0,0-1.572-1.572H9.336a1.574,1.574,0,0,0-1.572,1.572v3.1H5.546V32.287a2.786,2.786,0,0,0,0-5.405V24.559Zm9.9,9.92V33.9H19.02v.583ZM5.546,28.315a1.437,1.437,0,0,1,0,2.539ZM44.652,38.928v3.9a.238.238,0,0,1-.238.238H1.585a.238.238,0,0,1-.238-.238v-3.9a.238.238,0,0,1,.238-.238H44.415A.238.238,0,0,1,44.652,38.928Zm-1.757-1.6v.019H3.1v-.019a1.5,1.5,0,0,1,1.5-1.5H9.964a.674.674,0,0,0,0-1.348H9.111v-3.1a.225.225,0,0,1,.225-.225H15.23a.225.225,0,0,1,.225.225v3.1H13.035a.674.674,0,0,0,0,1.348H41.4a1.5,1.5,0,0,1,1.5,1.5ZM35.22,31.381v3.1H28.877v-3.1a.225.225,0,0,1,.225-.225H35A.225.225,0,0,1,35.22,31.381Zm-8.386-2.336a2.635,2.635,0,0,1,1.907.808,1.574,1.574,0,0,0-1.212,1.529v2.873a2.659,2.659,0,0,1-2.218-.39V29.526a2.649,2.649,0,0,1,1.522-.481Zm-2.87.155c0,.009,0,.018,0,.027v4.937c0,.009,0,.018,0,.027v.289h-3.6V33.231s0-.005,0-.008,0,0,0-.008V24.559h3.6Zm-6.088-5.988c0-.059,0-.118,0-.178v-.956h8.57v.956c0,.06,0,.119,0,.178Zm14.172,4.072a4.249,4.249,0,0,1-3.543-1.906h7.085A4.249,4.249,0,0,1,32.048,27.284Zm0,0"/>
        <path id="Path_1245343" data-name="Path 1245343" d="M15.113,19.462a.674.674,0,0,0-.674.674v.539a.674.674,0,1,0,1.348,0v-.539A.674.674,0,0,0,15.113,19.462Zm0,0"/>
        <path id="Path_1245344" data-name="Path 1245344" d="M9.453,21.348a.674.674,0,0,0,.674-.674v-.539a.674.674,0,0,0-1.348,0v.539A.674.674,0,0,0,9.453,21.348Zm0,0"/>
        <path id="Path_1245345" data-name="Path 1245345" d="M34.879,21.348a.674.674,0,0,0,.674-.674v-.539a.674.674,0,0,0-1.348,0v.539A.674.674,0,0,0,34.879,21.348Zm0,0"/>
        <path id="Path_1245346" data-name="Path 1245346" d="M29.219,21.348a.674.674,0,0,0,.674-.674v-.539a.674.674,0,0,0-1.348,0v.539A.674.674,0,0,0,29.219,21.348Zm0,0"/>
        <path id="Path_1245347" data-name="Path 1245347" d="M1.573,5.535h.272V6.609A1.574,1.574,0,0,0,3.417,8.181h8.075a.674.674,0,0,0,0-1.348H3.417a.224.224,0,0,1-.224-.224V5.535H42.807V6.609a.224.224,0,0,1-.224.224H14.563a.674.674,0,0,0,0,1.348h28.02a1.574,1.574,0,0,0,1.572-1.572V5.535h.272a1.572,1.572,0,0,0,1.44-2.2L44.819.941A1.572,1.572,0,0,0,43.379,0H2.621a1.572,1.572,0,0,0-1.44.941L.133,3.332a1.572,1.572,0,0,0,1.44,2.2ZM1.368,3.873,2.416,1.482a.224.224,0,0,1,.205-.134H43.379a.225.225,0,0,1,.206.134l1.048,2.391a.225.225,0,0,1-.206.314H1.573a.224.224,0,0,1-.205-.314Zm0,0"/>
      </g>
    </g>
  </g>
</svg>
